<?xml version="1.0" encoding="UTF-8"?>
<svg xmlns="http://www.w3.org/2000/svg" width="100%" viewBox="0 0 400 210" role="img" aria-labelledby="t d">
<title id="t">Contribution activity</title>
<desc id="d">233 contributions this year</desc>
<style><![CDATA[ .mono { font-family: "JetBrains Mono","IBM Plex Mono",ui-monospace,Menlo,Consolas,monospace; } ]]></style>
  <rect width="400" height="210" fill="#F2EFE6"/>

  <rect x="5" y="5" width="395" height="205" fill="#111110"/>
  <rect x="0" y="0" width="395" height="205" fill="#F2EFE6" stroke="#111110" stroke-width="2"/>
  <rect x="0" y="0" width="395" height="26" fill="#E8E4D8" stroke="#111110" stroke-width="2"/>
  <text class="mono" x="12" y="17" font-size="10" fill="#55534C" letter-spacing="0.06em">FIG. 04 / ACTIVITY</text>
  <text class="mono" x="383" y="17" font-size="10" fill="#FF5F00" text-anchor="end" letter-spacing="0.06em">[26 WK]</text>
<text class="mono" x="16" y="42" font-size="11" fill="#55534C">contribution heatmap · orange = commits</text><rect x="16" y="50" width="10" height="10" fill="#E8E4D8" opacity="1.00" stroke="#111110" stroke-width="0.4" stroke-opacity="0.15"/><rect x="16" y="62" width="10" height="10" fill="#E8E4D8" opacity="1.00" stroke="#111110" stroke-width="0.4" stroke-opacity="0.15"/><rect x="16" y="74" width="10" height="10" fill="#E8E4D8" opacity="1.00" stroke="#111110" stroke-width="0.4" stroke-opacity="0.15"/><rect x="16" y="86" width="10" height="10" fill="#E8E4D8" opacity="1.00" stroke="#111110" stroke-width="0.4" stroke-opacity="0.15"/><rect x="16" y="98" width="10" height="10" fill="#E8E4D8" opacity="1.00" stroke="#111110" stroke-width="0.4" stroke-opacity="0.15"/><rect x="16" y="110" width="10" height="10" fill="#E8E4D8" opacity="1.00" stroke="#111110" stroke-width="0.4" stroke-opacity="0.15"/><rect x="16" y="122" width="10" height="10" fill="#E8E4D8" opacity="1.00" stroke="#111110" stroke-width="0.4" stroke-opacity="0.15"/><rect x="28" y="50" width="10" height="10" fill="#E8E4D8" opacity="1.00" stroke="#111110" stroke-width="0.4" stroke-opacity="0.15"/><rect x="28" y="62" width="10" height="10" fill="#E8E4D8" opacity="1.00" stroke="#111110" stroke-width="0.4" stroke-opacity="0.15"/><rect x="28" y="74" width="10" height="10" fill="#E8E4D8" opacity="1.00" stroke="#111110" stroke-width="0.4" stroke-opacity="0.15"/><rect x="28" y="86" width="10" height="10" fill="#E8E4D8" opacity="1.00" stroke="#111110" stroke-width="0.4" stroke-opacity="0.15"/><rect x="28" y="98" width="10" height="10" fill="#E8E4D8" opacity="1.00" stroke="#111110" stroke-width="0.4" stroke-opacity="0.15"/><rect x="28" y="110" width="10" height="10" fill="#E8E4D8" opacity="1.00" stroke="#111110" stroke-width="0.4" stroke-opacity="0.15"/><rect x="28" y="122" width="10" height="10" fill="#E8E4D8" opacity="1.00" stroke="#111110" stroke-width="0.4" stroke-opacity="0.15"/><rect x="40" y="50" width="10" height="10" fill="#E8E4D8" opacity="1.00" stroke="#111110" stroke-width="0.4" stroke-opacity="0.15"/><rect x="40" y="62" width="10" height="10" fill="#E8E4D8" opacity="1.00" stroke="#111110" stroke-width="0.4" stroke-opacity="0.15"/><rect x="40" y="74" width="10" height="10" fill="#E8E4D8" opacity="1.00" stroke="#111110" stroke-width="0.4" stroke-opacity="0.15"/><rect x="40" y="86" width="10" height="10" fill="#E8E4D8" opacity="1.00" stroke="#111110" stroke-width="0.4" stroke-opacity="0.15"/><rect x="40" y="98" width="10" height="10" fill="#E8E4D8" opacity="1.00" stroke="#111110" stroke-width="0.4" stroke-opacity="0.15"/><rect x="40" y="110" width="10" height="10" fill="#E8E4D8" opacity="1.00" stroke="#111110" stroke-width="0.4" stroke-opacity="0.15"/><rect x="40" y="122" width="10" height="10" fill="#E8E4D8" opacity="1.00" stroke="#111110" stroke-width="0.4" stroke-opacity="0.15"/><rect x="52" y="50" width="10" height="10" fill="#E8E4D8" opacity="1.00" stroke="#111110" stroke-width="0.4" stroke-opacity="0.15"/><rect x="52" y="62" width="10" height="10" fill="#E8E4D8" opacity="1.00" stroke="#111110" stroke-width="0.4" stroke-opacity="0.15"/><rect x="52" y="74" width="10" height="10" fill="#E8E4D8" opacity="1.00" stroke="#111110" stroke-width="0.4" stroke-opacity="0.15"/><rect x="52" y="86" width="10" height="10" fill="#E8E4D8" opacity="1.00" stroke="#111110" stroke-width="0.4" stroke-opacity="0.15"/><rect x="52" y="98" width="10" height="10" fill="#E8E4D8" opacity="1.00" stroke="#111110" stroke-width="0.4" stroke-opacity="0.15"/><rect x="52" y="110" width="10" height="10" fill="#E8E4D8" opacity="1.00" stroke="#111110" stroke-width="0.4" stroke-opacity="0.15"/><rect x="52" y="122" width="10" height="10" fill="#E8E4D8" opacity="1.00" stroke="#111110" stroke-width="0.4" stroke-opacity="0.15"/><rect x="64" y="50" width="10" height="10" fill="#E8E4D8" opacity="1.00" stroke="#111110" stroke-width="0.4" stroke-opacity="0.15"/><rect x="64" y="62" width="10" height="10" fill="#E8E4D8" opacity="1.00" stroke="#111110" stroke-width="0.4" stroke-opacity="0.15"/><rect x="64" y="74" width="10" height="10" fill="#FF5F00" opacity="0.50" stroke="#111110" stroke-width="0.4" stroke-opacity="0.15"/><rect x="64" y="86" width="10" height="10" fill="#FF5F00" opacity="0.28" stroke="#111110" stroke-width="0.4" stroke-opacity="0.15"/><rect x="64" y="98" width="10" height="10" fill="#E8E4D8" opacity="1.00" stroke="#111110" stroke-width="0.4" stroke-opacity="0.15"/><rect x="64" y="110" width="10" height="10" fill="#E8E4D8" opacity="1.00" stroke="#111110" stroke-width="0.4" stroke-opacity="0.15"/><rect x="64" y="122" width="10" height="10" fill="#E8E4D8" opacity="1.00" stroke="#111110" stroke-width="0.4" stroke-opacity="0.15"/><rect x="76" y="50" width="10" height="10" fill="#E8E4D8" opacity="1.00" stroke="#111110" stroke-width="0.4" stroke-opacity="0.15"/><rect x="76" y="62" width="10" height="10" fill="#E8E4D8" opacity="1.00" stroke="#111110" stroke-width="0.4" stroke-opacity="0.15"/><rect x="76" y="74" width="10" height="10" fill="#E8E4D8" opacity="1.00" stroke="#111110" stroke-width="0.4" stroke-opacity="0.15"/><rect x="76" y="86" width="10" height="10" fill="#E8E4D8" opacity="1.00" stroke="#111110" stroke-width="0.4" stroke-opacity="0.15"/><rect x="76" y="98" width="10" height="10" fill="#E8E4D8" opacity="1.00" stroke="#111110" stroke-width="0.4" stroke-opacity="0.15"/><rect x="76" y="110" width="10" height="10" fill="#E8E4D8" opacity="1.00" stroke="#111110" stroke-width="0.4" stroke-opacity="0.15"/><rect x="76" y="122" width="10" height="10" fill="#E8E4D8" opacity="1.00" stroke="#111110" stroke-width="0.4" stroke-opacity="0.15"/><rect x="88" y="50" width="10" height="10" fill="#E8E4D8" opacity="1.00" stroke="#111110" stroke-width="0.4" stroke-opacity="0.15"/><rect x="88" y="62" width="10" height="10" fill="#E8E4D8" opacity="1.00" stroke="#111110" stroke-width="0.4" stroke-opacity="0.15"/><rect x="88" y="74" width="10" height="10" fill="#E8E4D8" opacity="1.00" stroke="#111110" stroke-width="0.4" stroke-opacity="0.15"/><rect x="88" y="86" width="10" height="10" fill="#E8E4D8" opacity="1.00" stroke="#111110" stroke-width="0.4" stroke-opacity="0.15"/><rect x="88" y="98" width="10" height="10" fill="#E8E4D8" opacity="1.00" stroke="#111110" stroke-width="0.4" stroke-opacity="0.15"/><rect x="88" y="110" width="10" height="10" fill="#E8E4D8" opacity="1.00" stroke="#111110" stroke-width="0.4" stroke-opacity="0.15"/><rect x="88" y="122" width="10" height="10" fill="#E8E4D8" opacity="1.00" stroke="#111110" stroke-width="0.4" stroke-opacity="0.15"/><rect x="100" y="50" width="10" height="10" fill="#E8E4D8" opacity="1.00" stroke="#111110" stroke-width="0.4" stroke-opacity="0.15"/><rect x="100" y="62" width="10" height="10" fill="#E8E4D8" opacity="1.00" stroke="#111110" stroke-width="0.4" stroke-opacity="0.15"/><rect x="100" y="74" width="10" height="10" fill="#E8E4D8" opacity="1.00" stroke="#111110" stroke-width="0.4" stroke-opacity="0.15"/><rect x="100" y="86" width="10" height="10" fill="#E8E4D8" opacity="1.00" stroke="#111110" stroke-width="0.4" stroke-opacity="0.15"/><rect x="100" y="98" width="10" height="10" fill="#E8E4D8" opacity="1.00" stroke="#111110" stroke-width="0.4" stroke-opacity="0.15"/><rect x="100" y="110" width="10" height="10" fill="#E8E4D8" opacity="1.00" stroke="#111110" stroke-width="0.4" stroke-opacity="0.15"/><rect x="100" y="122" width="10" height="10" fill="#E8E4D8" opacity="1.00" stroke="#111110" stroke-width="0.4" stroke-opacity="0.15"/><rect x="112" y="50" width="10" height="10" fill="#E8E4D8" opacity="1.00" stroke="#111110" stroke-width="0.4" stroke-opacity="0.15"/><rect x="112" y="62" width="10" height="10" fill="#E8E4D8" opacity="1.00" stroke="#111110" stroke-width="0.4" stroke-opacity="0.15"/><rect x="112" y="74" width="10" height="10" fill="#E8E4D8" opacity="1.00" stroke="#111110" stroke-width="0.4" stroke-opacity="0.15"/><rect x="112" y="86" width="10" height="10" fill="#E8E4D8" opacity="1.00" stroke="#111110" stroke-width="0.4" stroke-opacity="0.15"/><rect x="112" y="98" width="10" height="10" fill="#E8E4D8" opacity="1.00" stroke="#111110" stroke-width="0.4" stroke-opacity="0.15"/><rect x="112" y="110" width="10" height="10" fill="#E8E4D8" opacity="1.00" stroke="#111110" stroke-width="0.4" stroke-opacity="0.15"/><rect x="112" y="122" width="10" height="10" fill="#E8E4D8" opacity="1.00" stroke="#111110" stroke-width="0.4" stroke-opacity="0.15"/><rect x="124" y="50" width="10" height="10" fill="#E8E4D8" opacity="1.00" stroke="#111110" stroke-width="0.4" stroke-opacity="0.15"/><rect x="124" y="62" width="10" height="10" fill="#E8E4D8" opacity="1.00" stroke="#111110" stroke-width="0.4" stroke-opacity="0.15"/><rect x="124" y="74" width="10" height="10" fill="#E8E4D8" opacity="1.00" stroke="#111110" stroke-width="0.4" stroke-opacity="0.15"/><rect x="124" y="86" width="10" height="10" fill="#E8E4D8" opacity="1.00" stroke="#111110" stroke-width="0.4" stroke-opacity="0.15"/><rect x="124" y="98" width="10" height="10" fill="#E8E4D8" opacity="1.00" stroke="#111110" stroke-width="0.4" stroke-opacity="0.15"/><rect x="124" y="110" width="10" height="10" fill="#E8E4D8" opacity="1.00" stroke="#111110" stroke-width="0.4" stroke-opacity="0.15"/><rect x="124" y="122" width="10" height="10" fill="#E8E4D8" opacity="1.00" stroke="#111110" stroke-width="0.4" stroke-opacity="0.15"/><rect x="136" y="50" width="10" height="10" fill="#E8E4D8" opacity="1.00" stroke="#111110" stroke-width="0.4" stroke-opacity="0.15"/><rect x="136" y="62" width="10" height="10" fill="#FF5F00" opacity="0.75" stroke="#111110" stroke-width="0.4" stroke-opacity="0.15"/><rect x="136" y="74" width="10" height="10" fill="#E8E4D8" opacity="1.00" stroke="#111110" stroke-width="0.4" stroke-opacity="0.15"/><rect x="136" y="86" width="10" height="10" fill="#FF5F00" opacity="0.28" stroke="#111110" stroke-width="0.4" stroke-opacity="0.15"/><rect x="136" y="98" width="10" height="10" fill="#E8E4D8" opacity="1.00" stroke="#111110" stroke-width="0.4" stroke-opacity="0.15"/><rect x="136" y="110" width="10" height="10" fill="#E8E4D8" opacity="1.00" stroke="#111110" stroke-width="0.4" stroke-opacity="0.15"/><rect x="136" y="122" width="10" height="10" fill="#FF5F00" opacity="0.28" stroke="#111110" stroke-width="0.4" stroke-opacity="0.15"/><rect x="148" y="50" width="10" height="10" fill="#E8E4D8" opacity="1.00" stroke="#111110" stroke-width="0.4" stroke-opacity="0.15"/><rect x="148" y="62" width="10" height="10" fill="#E8E4D8" opacity="1.00" stroke="#111110" stroke-width="0.4" stroke-opacity="0.15"/><rect x="148" y="74" width="10" height="10" fill="#E8E4D8" opacity="1.00" stroke="#111110" stroke-width="0.4" stroke-opacity="0.15"/><rect x="148" y="86" width="10" height="10" fill="#E8E4D8" opacity="1.00" stroke="#111110" stroke-width="0.4" stroke-opacity="0.15"/><rect x="148" y="98" width="10" height="10" fill="#FF5F00" opacity="0.50" stroke="#111110" stroke-width="0.4" stroke-opacity="0.15"/><rect x="148" y="110" width="10" height="10" fill="#FF5F00" opacity="0.28" stroke="#111110" stroke-width="0.4" stroke-opacity="0.15"/><rect x="148" y="122" width="10" height="10" fill="#FF5F00" opacity="0.28" stroke="#111110" stroke-width="0.4" stroke-opacity="0.15"/><rect x="160" y="50" width="10" height="10" fill="#E8E4D8" opacity="1.00" stroke="#111110" stroke-width="0.4" stroke-opacity="0.15"/><rect x="160" y="62" width="10" height="10" fill="#E8E4D8" opacity="1.00" stroke="#111110" stroke-width="0.4" stroke-opacity="0.15"/><rect x="160" y="74" width="10" height="10" fill="#E8E4D8" opacity="1.00" stroke="#111110" stroke-width="0.4" stroke-opacity="0.15"/><rect x="160" y="86" width="10" height="10" fill="#FF5F00" opacity="0.75" stroke="#111110" stroke-width="0.4" stroke-opacity="0.15"/><rect x="160" y="98" width="10" height="10" fill="#FF5F00" opacity="0.28" stroke="#111110" stroke-width="0.4" stroke-opacity="0.15"/><rect x="160" y="110" width="10" height="10" fill="#E8E4D8" opacity="1.00" stroke="#111110" stroke-width="0.4" stroke-opacity="0.15"/><rect x="160" y="122" width="10" height="10" fill="#E8E4D8" opacity="1.00" stroke="#111110" stroke-width="0.4" stroke-opacity="0.15"/><rect x="172" y="50" width="10" height="10" fill="#FF5F00" opacity="0.28" stroke="#111110" stroke-width="0.4" stroke-opacity="0.15"/><rect x="172" y="62" width="10" height="10" fill="#E8E4D8" opacity="1.00" stroke="#111110" stroke-width="0.4" stroke-opacity="0.15"/><rect x="172" y="74" width="10" height="10" fill="#FF5F00" opacity="1.00" stroke="#111110" stroke-width="0.4" stroke-opacity="0.15"/><rect x="172" y="86" width="10" height="10" fill="#E8E4D8" opacity="1.00" stroke="#111110" stroke-width="0.4" stroke-opacity="0.15"/><rect x="172" y="98" width="10" height="10" fill="#E8E4D8" opacity="1.00" stroke="#111110" stroke-width="0.4" stroke-opacity="0.15"/><rect x="172" y="110" width="10" height="10" fill="#E8E4D8" opacity="1.00" stroke="#111110" stroke-width="0.4" stroke-opacity="0.15"/><rect x="172" y="122" width="10" height="10" fill="#E8E4D8" opacity="1.00" stroke="#111110" stroke-width="0.4" stroke-opacity="0.15"/><rect x="184" y="50" width="10" height="10" fill="#E8E4D8" opacity="1.00" stroke="#111110" stroke-width="0.4" stroke-opacity="0.15"/><rect x="184" y="62" width="10" height="10" fill="#E8E4D8" opacity="1.00" stroke="#111110" stroke-width="0.4" stroke-opacity="0.15"/><rect x="184" y="74" width="10" height="10" fill="#E8E4D8" opacity="1.00" stroke="#111110" stroke-width="0.4" stroke-opacity="0.15"/><rect x="184" y="86" width="10" height="10" fill="#E8E4D8" opacity="1.00" stroke="#111110" stroke-width="0.4" stroke-opacity="0.15"/><rect x="184" y="98" width="10" height="10" fill="#E8E4D8" opacity="1.00" stroke="#111110" stroke-width="0.4" stroke-opacity="0.15"/><rect x="184" y="110" width="10" height="10" fill="#E8E4D8" opacity="1.00" stroke="#111110" stroke-width="0.4" stroke-opacity="0.15"/><rect x="184" y="122" width="10" height="10" fill="#E8E4D8" opacity="1.00" stroke="#111110" stroke-width="0.4" stroke-opacity="0.15"/><rect x="196" y="50" width="10" height="10" fill="#E8E4D8" opacity="1.00" stroke="#111110" stroke-width="0.4" stroke-opacity="0.15"/><rect x="196" y="62" width="10" height="10" fill="#E8E4D8" opacity="1.00" stroke="#111110" stroke-width="0.4" stroke-opacity="0.15"/><rect x="196" y="74" width="10" height="10" fill="#E8E4D8" opacity="1.00" stroke="#111110" stroke-width="0.4" stroke-opacity="0.15"/><rect x="196" y="86" width="10" height="10" fill="#E8E4D8" opacity="1.00" stroke="#111110" stroke-width="0.4" stroke-opacity="0.15"/><rect x="196" y="98" width="10" height="10" fill="#E8E4D8" opacity="1.00" stroke="#111110" stroke-width="0.4" stroke-opacity="0.15"/><rect x="196" y="110" width="10" height="10" fill="#E8E4D8" opacity="1.00" stroke="#111110" stroke-width="0.4" stroke-opacity="0.15"/><rect x="196" y="122" width="10" height="10" fill="#E8E4D8" opacity="1.00" stroke="#111110" stroke-width="0.4" stroke-opacity="0.15"/><rect x="208" y="50" width="10" height="10" fill="#E8E4D8" opacity="1.00" stroke="#111110" stroke-width="0.4" stroke-opacity="0.15"/><rect x="208" y="62" width="10" height="10" fill="#E8E4D8" opacity="1.00" stroke="#111110" stroke-width="0.4" stroke-opacity="0.15"/><rect x="208" y="74" width="10" height="10" fill="#E8E4D8" opacity="1.00" stroke="#111110" stroke-width="0.4" stroke-opacity="0.15"/><rect x="208" y="86" width="10" height="10" fill="#E8E4D8" opacity="1.00" stroke="#111110" stroke-width="0.4" stroke-opacity="0.15"/><rect x="208" y="98" width="10" height="10" fill="#E8E4D8" opacity="1.00" stroke="#111110" stroke-width="0.4" stroke-opacity="0.15"/><rect x="208" y="110" width="10" height="10" fill="#E8E4D8" opacity="1.00" stroke="#111110" stroke-width="0.4" stroke-opacity="0.15"/><rect x="208" y="122" width="10" height="10" fill="#E8E4D8" opacity="1.00" stroke="#111110" stroke-width="0.4" stroke-opacity="0.15"/><rect x="220" y="50" width="10" height="10" fill="#E8E4D8" opacity="1.00" stroke="#111110" stroke-width="0.4" stroke-opacity="0.15"/><rect x="220" y="62" width="10" height="10" fill="#E8E4D8" opacity="1.00" stroke="#111110" stroke-width="0.4" stroke-opacity="0.15"/><rect x="220" y="74" width="10" height="10" fill="#E8E4D8" opacity="1.00" stroke="#111110" stroke-width="0.4" stroke-opacity="0.15"/><rect x="220" y="86" width="10" height="10" fill="#E8E4D8" opacity="1.00" stroke="#111110" stroke-width="0.4" stroke-opacity="0.15"/><rect x="220" y="98" width="10" height="10" fill="#E8E4D8" opacity="1.00" stroke="#111110" stroke-width="0.4" stroke-opacity="0.15"/><rect x="220" y="110" width="10" height="10" fill="#FF5F00" opacity="0.28" stroke="#111110" stroke-width="0.4" stroke-opacity="0.15"/><rect x="220" y="122" width="10" height="10" fill="#E8E4D8" opacity="1.00" stroke="#111110" stroke-width="0.4" stroke-opacity="0.15"/><rect x="232" y="50" width="10" height="10" fill="#E8E4D8" opacity="1.00" stroke="#111110" stroke-width="0.4" stroke-opacity="0.15"/><rect x="232" y="62" width="10" height="10" fill="#E8E4D8" opacity="1.00" stroke="#111110" stroke-width="0.4" stroke-opacity="0.15"/><rect x="232" y="74" width="10" height="10" fill="#E8E4D8" opacity="1.00" stroke="#111110" stroke-width="0.4" stroke-opacity="0.15"/><rect x="232" y="86" width="10" height="10" fill="#E8E4D8" opacity="1.00" stroke="#111110" stroke-width="0.4" stroke-opacity="0.15"/><rect x="232" y="98" width="10" height="10" fill="#E8E4D8" opacity="1.00" stroke="#111110" stroke-width="0.4" stroke-opacity="0.15"/><rect x="232" y="110" width="10" height="10" fill="#E8E4D8" opacity="1.00" stroke="#111110" stroke-width="0.4" stroke-opacity="0.15"/><rect x="232" y="122" width="10" height="10" fill="#E8E4D8" opacity="1.00" stroke="#111110" stroke-width="0.4" stroke-opacity="0.15"/><rect x="244" y="50" width="10" height="10" fill="#FF5F00" opacity="0.50" stroke="#111110" stroke-width="0.4" stroke-opacity="0.15"/><rect x="244" y="62" width="10" height="10" fill="#E8E4D8" opacity="1.00" stroke="#111110" stroke-width="0.4" stroke-opacity="0.15"/><rect x="244" y="74" width="10" height="10" fill="#E8E4D8" opacity="1.00" stroke="#111110" stroke-width="0.4" stroke-opacity="0.15"/><rect x="244" y="86" width="10" height="10" fill="#E8E4D8" opacity="1.00" stroke="#111110" stroke-width="0.4" stroke-opacity="0.15"/><rect x="244" y="98" width="10" height="10" fill="#E8E4D8" opacity="1.00" stroke="#111110" stroke-width="0.4" stroke-opacity="0.15"/><rect x="244" y="110" width="10" height="10" fill="#E8E4D8" opacity="1.00" stroke="#111110" stroke-width="0.4" stroke-opacity="0.15"/><rect x="244" y="122" width="10" height="10" fill="#E8E4D8" opacity="1.00" stroke="#111110" stroke-width="0.4" stroke-opacity="0.15"/><rect x="256" y="50" width="10" height="10" fill="#FF5F00" opacity="0.50" stroke="#111110" stroke-width="0.4" stroke-opacity="0.15"/><rect x="256" y="62" width="10" height="10" fill="#FF5F00" opacity="0.28" stroke="#111110" stroke-width="0.4" stroke-opacity="0.15"/><rect x="256" y="74" width="10" height="10" fill="#E8E4D8" opacity="1.00" stroke="#111110" stroke-width="0.4" stroke-opacity="0.15"/><rect x="256" y="86" width="10" height="10" fill="#FF5F00" opacity="0.28" stroke="#111110" stroke-width="0.4" stroke-opacity="0.15"/><rect x="256" y="98" width="10" height="10" fill="#FF5F00" opacity="0.28" stroke="#111110" stroke-width="0.4" stroke-opacity="0.15"/><rect x="256" y="110" width="10" height="10" fill="#FF5F00" opacity="0.50" stroke="#111110" stroke-width="0.4" stroke-opacity="0.15"/><rect x="256" y="122" width="10" height="10" fill="#E8E4D8" opacity="1.00" stroke="#111110" stroke-width="0.4" stroke-opacity="0.15"/><rect x="268" y="50" width="10" height="10" fill="#FF5F00" opacity="0.50" stroke="#111110" stroke-width="0.4" stroke-opacity="0.15"/><rect x="268" y="62" width="10" height="10" fill="#E8E4D8" opacity="1.00" stroke="#111110" stroke-width="0.4" stroke-opacity="0.15"/><rect x="268" y="74" width="10" height="10" fill="#FF5F00" opacity="0.50" stroke="#111110" stroke-width="0.4" stroke-opacity="0.15"/><rect x="268" y="86" width="10" height="10" fill="#E8E4D8" opacity="1.00" stroke="#111110" stroke-width="0.4" stroke-opacity="0.15"/><rect x="268" y="98" width="10" height="10" fill="#E8E4D8" opacity="1.00" stroke="#111110" stroke-width="0.4" stroke-opacity="0.15"/><rect x="268" y="110" width="10" height="10" fill="#E8E4D8" opacity="1.00" stroke="#111110" stroke-width="0.4" stroke-opacity="0.15"/><rect x="268" y="122" width="10" height="10" fill="#E8E4D8" opacity="1.00" stroke="#111110" stroke-width="0.4" stroke-opacity="0.15"/><rect x="280" y="50" width="10" height="10" fill="#E8E4D8" opacity="1.00" stroke="#111110" stroke-width="0.4" stroke-opacity="0.15"/><rect x="280" y="62" width="10" height="10" fill="#E8E4D8" opacity="1.00" stroke="#111110" stroke-width="0.4" stroke-opacity="0.15"/><rect x="280" y="74" width="10" height="10" fill="#E8E4D8" opacity="1.00" stroke="#111110" stroke-width="0.4" stroke-opacity="0.15"/><rect x="280" y="86" width="10" height="10" fill="#E8E4D8" opacity="1.00" stroke="#111110" stroke-width="0.4" stroke-opacity="0.15"/><rect x="280" y="98" width="10" height="10" fill="#E8E4D8" opacity="1.00" stroke="#111110" stroke-width="0.4" stroke-opacity="0.15"/><rect x="280" y="110" width="10" height="10" fill="#E8E4D8" opacity="1.00" stroke="#111110" stroke-width="0.4" stroke-opacity="0.15"/><rect x="280" y="122" width="10" height="10" fill="#E8E4D8" opacity="1.00" stroke="#111110" stroke-width="0.4" stroke-opacity="0.15"/><rect x="292" y="50" width="10" height="10" fill="#E8E4D8" opacity="1.00" stroke="#111110" stroke-width="0.4" stroke-opacity="0.15"/><rect x="292" y="62" width="10" height="10" fill="#E8E4D8" opacity="1.00" stroke="#111110" stroke-width="0.4" stroke-opacity="0.15"/><rect x="292" y="74" width="10" height="10" fill="#E8E4D8" opacity="1.00" stroke="#111110" stroke-width="0.4" stroke-opacity="0.15"/><rect x="292" y="86" width="10" height="10" fill="#E8E4D8" opacity="1.00" stroke="#111110" stroke-width="0.4" stroke-opacity="0.15"/><rect x="292" y="98" width="10" height="10" fill="#E8E4D8" opacity="1.00" stroke="#111110" stroke-width="0.4" stroke-opacity="0.15"/><rect x="292" y="110" width="10" height="10" fill="#E8E4D8" opacity="1.00" stroke="#111110" stroke-width="0.4" stroke-opacity="0.15"/><rect x="292" y="122" width="10" height="10" fill="#E8E4D8" opacity="1.00" stroke="#111110" stroke-width="0.4" stroke-opacity="0.15"/><rect x="304" y="50" width="10" height="10" fill="#E8E4D8" opacity="1.00" stroke="#111110" stroke-width="0.4" stroke-opacity="0.15"/><rect x="304" y="62" width="10" height="10" fill="#E8E4D8" opacity="1.00" stroke="#111110" stroke-width="0.4" stroke-opacity="0.15"/><rect x="304" y="74" width="10" height="10" fill="#E8E4D8" opacity="1.00" stroke="#111110" stroke-width="0.4" stroke-opacity="0.15"/><rect x="304" y="86" width="10" height="10" fill="#E8E4D8" opacity="1.00" stroke="#111110" stroke-width="0.4" stroke-opacity="0.15"/><rect x="304" y="98" width="10" height="10" fill="#E8E4D8" opacity="1.00" stroke="#111110" stroke-width="0.4" stroke-opacity="0.15"/><rect x="304" y="110" width="10" height="10" fill="#E8E4D8" opacity="1.00" stroke="#111110" stroke-width="0.4" stroke-opacity="0.15"/><rect x="304" y="122" width="10" height="10" fill="#E8E4D8" opacity="1.00" stroke="#111110" stroke-width="0.4" stroke-opacity="0.15"/><rect x="316" y="50" width="10" height="10" fill="#E8E4D8" opacity="1.00" stroke="#111110" stroke-width="0.4" stroke-opacity="0.15"/><rect x="316" y="62" width="10" height="10" fill="#FF5F00" opacity="0.50" stroke="#111110" stroke-width="0.4" stroke-opacity="0.15"/><rect x="316" y="74" width="10" height="10" fill="#FF5F00" opacity="0.50" stroke="#111110" stroke-width="0.4" stroke-opacity="0.15"/><rect x="316" y="86" width="10" height="10" fill="#FF5F00" opacity="0.28" stroke="#111110" stroke-width="0.4" stroke-opacity="0.15"/><rect x="316" y="98" width="10" height="10" fill="#FF5F00" opacity="1.00" stroke="#111110" stroke-width="0.4" stroke-opacity="0.15"/><rect x="316" y="110" width="10" height="10" fill="#FF5F00" opacity="0.50" stroke="#111110" stroke-width="0.4" stroke-opacity="0.15"/><rect x="316" y="122" width="10" height="10" fill="#FF5F00" opacity="0.75" stroke="#111110" stroke-width="0.4" stroke-opacity="0.15"/><text class="mono" x="16" y="188" font-size="10" fill="#55534C">less</text><rect x="52" y="178" width="10" height="10" fill="#E8E4D8" opacity="1.00" stroke="#111110" stroke-width="0.5"/><rect x="66" y="178" width="10" height="10" fill="#FF5F00" opacity="0.28" stroke="#111110" stroke-width="0.5"/><rect x="80" y="178" width="10" height="10" fill="#FF5F00" opacity="0.50" stroke="#111110" stroke-width="0.5"/><rect x="94" y="178" width="10" height="10" fill="#FF5F00" opacity="0.75" stroke="#111110" stroke-width="0.5"/><rect x="108" y="178" width="10" height="10" fill="#FF5F00" opacity="1.00" stroke="#111110" stroke-width="0.5"/><text class="mono" x="130" y="188" font-size="10" fill="#55534C">more</text><text class="mono" x="380" y="188" font-size="10" fill="#FF5F00" text-anchor="end">233 this year</text>
</svg>
