<?xml version="1.0" encoding="UTF-8"?>
<svg xmlns="http://www.w3.org/2000/svg" width="100%" viewBox="0 0 400 200" role="img" aria-labelledby="t d">
<title id="t">Commit habits by weekday</title>
<desc id="d">{'Mon': 28, 'Tue': 27, 'Wed': 27, 'Thu': 38, 'Fri': 38, 'Sat': 25, 'Sun': 50}</desc>
<style><![CDATA[ .mono { font-family: "JetBrains Mono","IBM Plex Mono",ui-monospace,Menlo,Consolas,monospace; } ]]></style>
  <rect width="400" height="200" fill="#F2EFE6"/>

  <rect x="5" y="5" width="395" height="195" fill="#111110"/>
  <rect x="0" y="0" width="395" height="195" fill="#F2EFE6" stroke="#111110" stroke-width="2"/>
  <rect x="0" y="0" width="395" height="26" fill="#E8E4D8" stroke="#111110" stroke-width="2"/>
  <text class="mono" x="12" y="17" font-size="10" fill="#55534C" letter-spacing="0.06em">FIG. 03 / HABITS</text>
  <text class="mono" x="383" y="17" font-size="10" fill="#FF5F00" text-anchor="end" letter-spacing="0.06em">[WEEKDAY]</text>
<text class="mono" x="16" y="42" font-size="11" fill="#55534C">commits by day of week · this year</text>
  <rect x="28" y="109.6" width="28" height="50.400000000000006" fill="#FF5F00" opacity="0.76"/>
  <text class="mono" x="42" y="176" font-size="10" fill="#55534C" text-anchor="middle">Mon</text>
  <text class="mono" x="42" y="103.6" font-size="10" fill="#111110" text-anchor="middle">28</text>

  <rect x="78" y="111.4" width="28" height="48.6" fill="#FF5F00" opacity="0.75"/>
  <text class="mono" x="92" y="176" font-size="10" fill="#55534C" text-anchor="middle">Tue</text>
  <text class="mono" x="92" y="105.4" font-size="10" fill="#111110" text-anchor="middle">27</text>

  <rect x="128" y="111.4" width="28" height="48.6" fill="#FF5F00" opacity="0.75"/>
  <text class="mono" x="142" y="176" font-size="10" fill="#55534C" text-anchor="middle">Wed</text>
  <text class="mono" x="142" y="105.4" font-size="10" fill="#111110" text-anchor="middle">27</text>

  <rect x="178" y="91.6" width="28" height="68.4" fill="#FF5F00" opacity="0.87"/>
  <text class="mono" x="192" y="176" font-size="10" fill="#55534C" text-anchor="middle">Thu</text>
  <text class="mono" x="192" y="85.6" font-size="10" fill="#111110" text-anchor="middle">38</text>

  <rect x="228" y="91.6" width="28" height="68.4" fill="#FF5F00" opacity="0.87"/>
  <text class="mono" x="242" y="176" font-size="10" fill="#55534C" text-anchor="middle">Fri</text>
  <text class="mono" x="242" y="85.6" font-size="10" fill="#111110" text-anchor="middle">38</text>

  <rect x="278" y="115.0" width="28" height="45.0" fill="#FF5F00" opacity="0.73"/>
  <text class="mono" x="292" y="176" font-size="10" fill="#55534C" text-anchor="middle">Sat</text>
  <text class="mono" x="292" y="109.0" font-size="10" fill="#111110" text-anchor="middle">25</text>

  <rect x="328" y="70.0" width="28" height="90.0" fill="#FF5F00" opacity="1.00"/>
  <text class="mono" x="342" y="176" font-size="10" fill="#55534C" text-anchor="middle">Sun</text>
  <text class="mono" x="342" y="64.0" font-size="10" fill="#111110" text-anchor="middle">50</text>

</svg>
